<?xml version="1.0" encoding="iso-8859-1"?>
<!-- Generator: Adobe Illustrator 16.0.0, SVG Export Plug-In . SVG Version: 6.00 Build 0)  -->
<!DOCTYPE svg PUBLIC "-//W3C//DTD SVG 1.1//EN" "http://www.w3.org/Graphics/SVG/1.1/DTD/svg11.dtd">
<svg version="1.1" id="Capa_1" xmlns="http://www.w3.org/2000/svg" xmlns:xlink="http://www.w3.org/1999/xlink" x="0px" y="0px"
	 width="689.717px" height="689.717px" viewBox="0 0 689.717 689.717" style="enable-background:new 0 0 689.717 689.717;"
	 xml:space="preserve">
<g>
	<g id="google">
		<g>
			<path d="M334.379,253.606c6.248-9.413,10.346-19.308,12.345-30.587c0.916-8.446,1.383-15.776,1.383-21.773
				c0-25.889-6.631-52.194-19.642-78.049c-6.68-13.627-15.709-24.956-27.354-34.019c-12.078-8.713-26.022-13.361-41.449-13.844
				c-0.3-0.017-0.616,0-0.916,0c-20.941,0.5-38.567,8.996-52.394,25.289c-0.383,0.45-0.733,0.917-1.066,1.399
				c-10.928,16.026-16.226,34.135-15.776,53.427c0,24.14,7.014,49.345,20.974,75.117c7.164,12.728,16.51,23.64,27.755,32.436
				c12.544,9.846,27.071,14.86,43.797,14.86h0.05c19.941-0.75,36.867-8.08,50.311-21.807
				C333.13,255.305,333.796,254.472,334.379,253.606z M313.772,218.238c-0.933,5.164-3.049,10.412-6.281,15.593
				c-7.18,6.813-15.876,10.329-26.022,10.729c-8.596,0-16.01-2.532-22.673-7.763c-7.78-6.098-14.277-13.678-19.142-22.324
				c-11.162-20.608-16.81-40.466-16.826-59.408c-0.3-12.461,2.815-23.423,9.496-33.535c7.38-8.396,15.91-12.495,26.755-12.861
				c8.596,0.35,15.959,2.816,22.041,7.197c7.213,5.614,12.911,12.828,17.492,22.19c10.729,21.308,16.16,42.565,16.16,63.206
				C314.788,206.16,314.372,212.224,313.772,218.238z M399.352,376.736l-28.038-22.857c-3.882-3.881-7.847-8.363-12.411-14.061
				c-1.566-1.749-3.648-4.814-3.648-11.178c0-5.748,1.433-10.362,5.015-15.31c3.814-5.864,7.946-11.112,11.229-14.61
				c9.179-7.997,17.825-15.876,26.555-24.206c7.714-8.113,15.077-17.06,21.94-26.655c15.027-21.224,22.924-49.262,23.49-83.63
				l0.017-5.564c0.05-13.028,0.083-20.208-4.266-34.585c-5.381-14.744-10.512-26.455-17.991-35.285h10.695
				c5.181,0,10.078-2.416,13.228-6.547l42.397-55.476c3.849-5.031,4.515-11.828,1.699-17.509C486.48,3.598,480.683,0,474.352,0
				H301.944c-23.84,0-49.695,2.798-77.316,8.43c-28.837,6.73-56.842,21.141-84.197,43.764
				c-38.883,37.6-58.591,80.398-58.591,127.178c0,39.333,14.26,74.185,41.731,102.889c27.188,32.002,66.688,48.529,117.632,49.179
				c1.316,0,2.649-0.017,3.998-0.034c-0.983,4.715-1.466,9.846-1.466,15.511c0,15.875,3.731,29.82,10.412,40.266
				c0.65,1.215,1.299,2.432,1.966,3.648c-14.644,1.316-31.07,3.314-49.229,5.996c-32.519,5.615-63.939,17.01-93.692,34.02
				c-27.622,16.477-47.13,36.201-57.908,58.475c-10.912,21.824-16.426,42.264-16.426,60.756c0,37.984,17.309,70.787,50.978,97.074
				c32.669,27.639,81.748,41.967,145.87,42.566h0.417c75.85-1.201,135.141-19.975,176.273-55.844
				c40.482-35.385,61.023-76.967,61.023-123.861c-0.6-32.736-8.396-59.924-23.557-81.281
				C435.452,409.855,418.46,392.361,399.352,376.736z M390.472,608.785c-34.984,30.502-87.028,46.512-154.666,47.611
				c-56.025-0.549-97.891-12.227-124.962-35.102c-26.022-20.34-38.667-43.646-38.667-71.219c0-13.277,4.348-28.703,13.011-46.062
				c7.963-16.492,23.14-31.469,44.797-44.396c26.089-14.928,53.86-24.99,82.131-29.889c29.604-4.363,54.443-6.846,73.851-7.379
				c6.248-0.168,11.862-3.816,14.561-9.463c2.699-5.631,2.016-12.311-1.766-17.275c-5.598-7.363-10.679-15.377-15.776-25.039
				c-3.998-6.314-5.931-14.061-5.931-23.656c0-6.615,1.033-10.413,2.315-13.495c1.849-5.314,3.599-10.196,5.214-14.644
				c1.966-5.414,0.983-11.461-2.582-15.993c-3.182-4.032-8.013-6.347-13.094-6.347c-0.617,0-1.233,0.033-1.849,0.1
				c-9.313,1.033-18.009,1.566-25.639,1.566c-41.249-0.516-71.502-12.761-93.109-38.15c-22.307-23.34-33.152-49.695-33.152-80.582
				c0-37.934,15.843-71.702,47.446-102.355c22.374-18.442,45.797-30.603,69.137-36.051c24.972-5.064,48.595-7.646,70.203-7.646
				H440.65l-16.927,22.157h-44.946c-7.348,0-13.628,4.948-15.743,11.978c-2.133,7.03,0.816,14.76,6.946,18.825
				c3.382,2.249,15.776,14.244,21.074,19.358l4.448,4.265c5.031,5.214,10.429,20.024,12.161,24.673
				c2.616,8.713,2.6,11.928,2.549,23.956l-0.017,5.448c-0.449,27.254-6.28,48.995-17.309,64.572
				c-5.931,8.28-12.295,16.026-18.342,22.423c-7.797,7.414-16.11,14.977-25.956,23.64c-5.797,5.998-11.245,12.928-15.693,19.808
				c-7.264,9.896-10.929,21.424-10.929,34.235c0,13.161,4.098,24.406,11.512,32.669c4.715,5.93,9.529,11.361,15.527,17.242
				l29.271,23.973c17.093,13.994,32.286,29.604,44.764,45.947c10.879,15.326,16.609,36.234,17.076,61.84
				C440.084,547.395,423.857,579.613,390.472,608.785z M306.475,444.605c-2.299-1.6-4.948-2.598-7.747-2.898
				c-4.282-0.467-9.296-0.684-15.027-0.699c-4.298-0.35-12.211-0.066-27.655,1.383c-13.644,1.932-27.838,5.098-43.364,9.779
				c-3.315,1.266-7.98,3.182-14.427,5.914c-6.963,3.197-14.094,7.73-21.757,13.961c-7.247,6.43-13.411,14.359-18.009,23.072
				c-6.047,10.463-9.096,22.924-9.096,37.018c0,27.555,12.395,50.395,36.518,67.621c21.724,16.359,51.161,24.889,87.928,25.338
				c33.186-0.449,59.357-8.279,77.866-23.307c19.108-15.676,28.805-36.117,28.805-60.789c0-19.992-6.631-37.65-20.291-53.145
				C348.44,475.793,330.864,461.633,306.475,444.605z M330.665,575.965c-12.495,10.146-31.753,15.461-56.825,15.811
				c-29.087-0.35-51.927-6.631-68.204-18.875c-15.626-11.162-22.907-24.123-22.907-40.766c0-8.164,1.566-15.027,4.931-20.891
				c3.032-5.697,6.714-10.496,10.412-13.811c4.915-3.998,9.663-7.047,13.644-8.881c5.548-2.348,9.829-4.113,11.711-4.881
				c12.761-3.814,25.306-6.613,36.501-8.229c9.163-0.834,15.71-1.283,19.658-1.283l1.233,0.016c3.615,0.5,7.213,0.15,10.262,0.316
				c20.474,14.479,35.684,26.756,44.73,35.984c7.663,8.713,11.395,18.693,11.395,30.504
				C347.207,555.592,341.926,566.719,330.665,575.965z M634.199,95.558h-49.979V45.58c0-9.196-7.464-16.66-16.659-16.66
				c-9.196,0-16.659,7.463-16.659,16.66v49.978h-49.979c-9.196,0-16.659,7.463-16.659,16.66c0,9.196,7.463,16.659,16.659,16.659
				h49.979v49.978c0,9.196,7.463,16.66,16.659,16.66c9.195,0,16.659-7.463,16.659-16.66v-49.978h49.979
				c9.195,0,16.659-7.463,16.659-16.659C650.858,103.021,643.411,95.558,634.199,95.558z"/>
		</g>
	</g>
</g>
<g>
</g>
<g>
</g>
<g>
</g>
<g>
</g>
<g>
</g>
<g>
</g>
<g>
</g>
<g>
</g>
<g>
</g>
<g>
</g>
<g>
</g>
<g>
</g>
<g>
</g>
<g>
</g>
<g>
</g>
</svg>
